<svg width="285" height="170" viewBox="0 0 285 170" fill="none" xmlns="http://www.w3.org/2000/svg">
<path d="M140 26L127.5 12.5H72" stroke="#6E7A84" stroke-width="3" stroke-linecap="round"/>
<path d="M167.651 6.37201C136.752 19.0983 115 49.5089 115 85C115 86.2238 115.026 87.4415 115.077 88.6526L157.039 86.8478C157.013 86.2351 157 85.6191 157 85C157 67.2208 167.79 51.9617 183.18 45.4143L167.651 6.37201Z" fill="white"/>
<path d="M184.104 45.0336C189.021 43.0762 194.385 42 200 42C210.443 42 220.016 45.7224 227.465 51.9125L255.039 20.2232C240.209 7.6106 220.993 0 200 0C188.901 0 178.298 2.12744 168.578 5.9967L184.104 45.0336Z" fill="white"/>
<path d="M285 85C285 88.9573 284.73 92.8514 284.206 96.665L242.663 90.4111C242.885 88.6387 243 86.8328 243 85C243 72.0537 237.279 60.4438 228.227 52.5605L255.797 20.8755C273.69 36.4586 285 59.4086 285 85Z" fill="white"/>
<path d="M225.778 166.021C256.229 156.341 279.241 129.969 284.064 97.6548L242.527 91.4019C240.112 107.582 228.682 120.818 213.511 125.835L225.778 166.021Z" fill="white"/>
<path d="M224.823 166.318C216.971 168.712 208.636 170 200 170C154.616 170 117.54 134.432 115.125 89.6515L157.093 87.8464C158.558 110.268 177.208 128 200 128C204.369 128 208.585 127.349 212.558 126.137L224.823 166.318Z" fill="white"/>
<path d="M184.104 45.0336C189.021 43.0762 194.385 42 200 42C210.443 42 220.016 45.7224 227.465 51.9125L255.039 20.2232C240.209 7.6106 220.993 0 200 0C188.901 0 178.298 2.12744 168.578 5.9967L184.104 45.0336Z" fill="white"/>
<path d="M167.651 6.37201C136.752 19.0983 115 49.5089 115 85C115 86.2238 115.026 87.4415 115.077 88.6526L157.039 86.8478C157.013 86.2351 157 85.6191 157 85C157 67.2208 167.79 51.9617 183.18 45.4143L167.651 6.37201Z" fill="white"/>
<path d="M1.5 15.5C3.5 13.5 9.1 9.6 15.5 10C23.5 10.5 23.5 17.5 29.5 16.5C35.5 15.5 34 10 36 10C38 10 41 17 43.5 15.5C46 14 49 10 52 10C55 10 60.5 15.5 63 15.5" stroke="white" stroke-width="3" stroke-linecap="round"/>
<g filter="url(#filter0_i_2_77)">
<path d="M167.651 6.37201C136.752 19.0983 115 49.5089 115 85C115 86.2238 115.026 87.4415 115.077 88.6526L157.039 86.8478C157.013 86.2351 157 85.6191 157 85C157 67.2208 167.79 51.9617 183.18 45.4143L167.651 6.37201Z" fill="#58E08F"/>
</g>
<defs>
<filter id="filter0_i_2_77" x="115" y="6.37201" width="68.1796" height="82.2806" filterUnits="userSpaceOnUse" color-interpolation-filters="sRGB">
<feFlood flood-opacity="0" result="BackgroundImageFix"/>
<feBlend mode="normal" in="SourceGraphic" in2="BackgroundImageFix" result="shape"/>
<feColorMatrix in="SourceAlpha" type="matrix" values="0 0 0 0 0 0 0 0 0 0 0 0 0 0 0 0 0 0 127 0" result="hardAlpha"/>
<feOffset/>
<feGaussianBlur stdDeviation="2"/>
<feComposite in2="hardAlpha" operator="arithmetic" k2="-1" k3="1"/>
<feColorMatrix type="matrix" values="0 0 0 0 0 0 0 0 0 0 0 0 0 0 0 0 0 0 0.25 0"/>
<feBlend mode="normal" in2="shape" result="effect1_innerShadow_2_77"/>
</filter>
</defs>
</svg>
